:SAMPLES-PER-SECOND 30
:FULLY-SPECIFIED
:DEGREES
232
root  -5.33505 40.6418 1.04241 172.713 -79.1748 -174.438
RightUpLeg  -3.12993 1.06224 -1.72925
RightLeg  12.5692 -11.817 -3.43109
RightFoot  -2.60038 -0.593136 7.52981
RightToes  -3.11842e-008 1.75238e-005 3.56266e-009
Spine  -0.31527 4.61062 -1.07778
Spine1  10.3736 4.88189 -1.04581
HEad  -23.2733 -1.7242 0.774689
LeftShoulder1  2.77452 -5.87399 -23.3379
LeftArm  20.2326 53.6813 -18.0209
LeftForeArm  162.86 -68.6639 -154.219
LeftHand  -1.23846 -5.51873 13.4412
RightShoulder  4.12549 8.36133 28.8191
RightArm  12.8161 16.0267 49.8822
RightForeArm  147.725 73.8499 143.116
RightHand  -1.35027 11.1499 -9.83899
LeftUpLeg  4.27152 3.03311 2.42894
LeftLeg  4.63479 20.4235 0.758344
LeftFoot  -5.16166 0.158387 -2.41064
LeftToes  4.78904e-008 1.4679e-008 1.35657e-009
233
root  -5.39964 40.6518 0.845597 172.905 -80.8891 -174.899
RightUpLeg  -0.870232 -0.351956 -1.56839
RightLeg  9.50439 -13.3079 -2.98281
RightFoot  -3.17402 -0.431581 5.73636
RightToes  -3.11842e-008 1.75238e-005 3.56266e-009
Spine  -0.794232 4.43361 -0.833145
Spine1  11.0993 4.7536 -1.04535
HEad  -23.0221 -2.81617 0.850861
LeftShoulder1  2.88705 -5.74304 -25.0631
LeftArm  15.011 46.6428 -22.3053
LeftForeArm  162.083 -69.52 -152.997
LeftHand  -1.18225 -5.17256 13.2517
RightShoulder  4.12183 8.21968 29.2166
RightArm  12.1543 10.9112 47.4696
RightForeArm  148.946 73.6346 143.822
RightHand  -1.3545 11.127 -9.89
LeftUpLeg  4.36546 2.80521 2.45252
LeftLeg  4.84342 18.8917 0.929492
LeftFoot  -5.16245 0.167179 -2.52138
LeftToes  4.78904e-008 1.4679e-008 1.35657e-009
234
root  -5.47168 40.6809 0.643367 173.138 -83.0941 -175.126
RightUpLeg  0.765758 -1.18052 -1.60318
RightLeg  7.20836 -15.2063 -2.3258
RightFoot  -3.40267 -0.325792 4.37065
RightToes  -3.11842e-008 1.75238e-005 3.56266e-009
Spine  -2.06263 3.94437 -1.00338
Spine1  12.5451 4.26301 -0.717694
HEad  -22.6893 -3.15625 1.6929
LeftShoulder1  2.97288 -5.56644 -26.6685
LeftArm  8.86305 39.5411 -28.413
LeftForeArm  162.316 -70.431 -151.742
LeftHand  -1.2057 -5.17321 13.5061
RightShoulder  4.15488 8.11022 29.8498
RightArm  11.5418 4.42803 44.5819
RightForeArm  148.178 73.6648 143.619
RightHand  -1.35683 10.4016 -10.3263
LeftUpLeg  4.36754 2.63556 2.59288
LeftLeg  4.45516 16.8416 0.682204
LeftFoot  -4.889 0.162265 -2.3592
LeftToes  4.78904e-008 1.4679e-008 1.35657e-009
235
root  -5.53724 40.7469 0.449987 166.192 -86.1501 -168.167
RightUpLeg  2.54942 -1.93536 -1.60363
RightLeg  4.69185 -17.7255 -1.18489
RightFoot  -2.94126 -0.292864 3.70884
RightToes  -3.11842e-008 1.75238e-005 3.56266e-009
Spine  -2.64363 3.11456 -0.826979
Spine1  12.9937 3.52716 -0.792138
HEad  -22.1173 -3.38173 3.29146
LeftShoulder1  3.2997 -6.00656 -28.637
LeftArm  4.05643 33.0696 -33.4466
LeftForeArm  162.436 -70.7022 -151.349
LeftHand  -1.17822 -4.9725 13.4515
RightShoulder  4.22042 7.93182 30.9957
RightArm  9.85633 -4.25126 41.6747
RightForeArm  149.887 74.0259 143.089
RightHand  -1.30109 10.8474 -9.66228
LeftUpLeg  4.38179 2.39065 2.96065
LeftLeg  3.71324 13.9598 0.493086
LeftFoot  -4.33595 0.164503 -2.26029
LeftToes  4.78904e-008 1.4679e-008 1.35657e-009
236
root  -5.61985 40.7903 0.254388 163.086 -89.402 -164.928
RightUpLeg  3.89758 -2.61751 -1.70709
RightLeg  2.80787 -20.2253 -0.112048
RightFoot  -2.63084 -0.30185 3.72515
RightToes  -3.11842e-008 1.75238e-005 3.56266e-009
Spine  -3.32297 2.05948 -1.58857
Spine1  13.3528 2.37924 -0.241192
HEad  -21.402 -3.30127 4.68096
LeftShoulder1  3.70672 -6.74745 -30.1582
LeftArm  -0.355997 28.3667 -39.0317
LeftForeArm  164.432 -70.5155 -151.906
LeftHand  -1.17112 -5.19344 13.1066
RightShoulder  4.32531 7.89332 32.0561
RightArm  8.45281 -13.6691 38.9615
RightForeArm  150.221 74.1327 142.897
RightHand  -1.21357 10.7977 -9.0719
LeftUpLeg  4.18771 2.18993 3.23474
LeftLeg  3.09594 10.9074 0.359969
LeftFoot  -3.8717 0.179502 -2.39361
LeftToes  4.78904e-008 1.4679e-008 1.35657e-009
237
root  -5.69351 40.8164 0.0498814 12.6443 -86.7064 -14.123
RightUpLeg  4.97825 -2.99694 -1.53506
RightLeg  0.88387 -23.5992 0.928627
RightFoot  -2.25902 -0.29632 3.5382
RightToes  -3.11842e-008 1.75238e-005 3.56266e-009
Spine  -3.8943 0.594137 -3.59921
Spine1  13.3251 0.41191 1.80715
HEad  -20.9522 -2.67762 5.06165
LeftShoulder1  3.77887 -6.80018 -30.6715
LeftArm  -3.8896 25.3659 -46.4308
LeftForeArm  165.554 -70.1199 -152.628
LeftHand  -1.19622 -5.42543 13.1035
RightShoulder  4.14202 7.48478 31.7952
RightArm  8.186 -22.7475 37.1086
RightForeArm  150.59 73.8304 143.657
RightHand  -1.21898 10.9948 -9.00696
LeftUpLeg  3.41754 1.8366 3.44997
LeftLeg  2.88934 7.58507 0.505215
LeftFoot  -3.47933 0.201378 -2.62534
LeftToes  4.78904e-008 1.4679e-008 1.35657e-009
238
root  -5.78027 40.8272 -0.151658 0.467407 -83.3495 -1.68658
RightUpLeg  5.9507 -3.25431 -1.42025
RightLeg  -0.758358 -26.8288 1.75498
RightFoot  -2.05747 -0.279671 3.27604
RightToes  -3.11842e-008 1.75238e-005 3.56266e-009
Spine  -4.32595 -1.01056 -6.19851
Spine1  13.7135 -1.82056 4.42351
HEad  -21.0604 -1.65824 4.55205
LeftShoulder1  3.74233 -6.60583 -31.0151
LeftArm  -5.75839 23.0316 -52.3609
LeftForeArm  166.659 -69.1524 -154.08
LeftHand  -1.23088 -5.5298 13.3503
RightShoulder  3.87381 7.05487 30.7863
RightArm  8.09007 -30.6781 36.0971
RightForeArm  152.527 73.0475 145.689
RightHand  -1.12695 11.0487 -8.33601
LeftUpLeg  2.86106 1.42689 3.43922
LeftLeg  2.58235 4.60373 0.569271
LeftFoot  -3.11144 0.236341 -3.02547
LeftToes  4.78904e-008 1.4679e-008 1.35657e-009
239
root  -5.84153 40.829 -0.320744 -1.47058 -81.3977 0.47229
RightUpLeg  6.31779 -3.14744 -1.21653
RightLeg  -1.52913 -28.9599 1.95145
RightFoot  -2.02181 -0.266538 3.11174
RightToes  -3.11842e-008 1.75238e-005 3.56266e-009
Spine  -4.7924 -1.99838 -6.94096
Spine1  14.2166 -2.87701 4.78038
HEad  -21.5889 -0.669109 4.28164
LeftShoulder1  3.64818 -6.40473 -30.8149
LeftArm  -5.79415 21.3977 -55.2249
LeftForeArm  168.694 -67.8919 -155.864
LeftHand  -1.21546 -5.66713 13.0299
RightShoulder  3.57804 6.55188 29.652
RightArm  7.39562 -36.9693 36.5859
RightForeArm  153.171 72.478 146.926
RightHand  -1.0996 11.1523 -8.0973
LeftUpLeg  2.66518 1.17116 3.38219
LeftLeg  2.01527 2.956 0.557077
LeftFoot  -2.74566 0.265397 -3.31264
LeftToes  4.78904e-008 1.4679e-008 1.35657e-009
240
root  -5.85928 40.8295 -0.455544 -1.74969 -80.4505 0.942627
RightUpLeg  6.19878 -2.9945 -0.971594
RightLeg  -1.55068 -30.0233 1.92837
RightFoot  -2.0659 -0.249572 2.89877
RightToes  -3.11842e-008 1.75238e-005 3.56266e-009
Spine  -4.98418 -2.68296 -6.75367
Spine1  14.2434 -3.5037 4.42349
HEad  -21.9295 -0.508217 3.74941
LeftShoulder1  3.64 -6.41629 -30.6896
LeftArm  -4.73455 21.2594 -54.7026
LeftForeArm  170.553 -66.256 -157.815
LeftHand  -1.1798 -5.62898 12.7026
RightShoulder  3.26971 6.0488 28.2855
RightArm  6.95293 -41.0993 37.9383
RightForeArm  153.874 72.129 147.687
RightHand  -1.08538 11.2926 -7.9348
LeftUpLeg  2.39466 1.09944 3.48714
LeftLeg  1.8414 2.08896 0.615163
LeftFoot  -2.58036 0.299998 -3.71199
LeftToes  4.78904e-008 1.4679e-008 1.35657e-009
241
root  -5.85663 40.8322 -0.556632 -2.68933 -80.4728 1.9082
RightUpLeg  6.00256 -2.97021 -0.944906
RightLeg  -1.24578 -30.0754 1.74167
RightFoot  -2.20008 -0.240447 2.8183
RightToes  -3.11842e-008 1.75238e-005 3.56266e-009
Spine  -4.96315 -3.11698 -6.2021
Spine1  14.0832 -3.77067 3.68516
HEad  -22.1016 0.26595 3.08435
LeftShoulder1  3.66175 -6.58948 -30.2668
LeftArm  -3.87797 22.7602 -52.5965
LeftForeArm  171.388 -64.4997 -159.563
LeftHand  -1.18697 -6.12772 12.2584
RightShoulder  3.2312 6.06827 27.7876
RightArm  6.64247 -43.1457 38.8085
RightForeArm  153.746 71.6763 148.483
RightHand  -1.06538 11.1151 -7.87622
LeftUpLeg  2.53186 1.11977 3.51682
LeftLeg  1.46682 2.08662 0.535381
LeftFoot  -2.36569 0.327663 -3.99542
LeftToes  4.78904e-008 1.4679e-008 1.35657e-009
242
root  -5.83609 40.8239 -0.637802 -3.56628 -80.9941 2.71991
RightUpLeg  5.82702 -3.03196 -0.993288
RightLeg  -0.907786 -29.5764 1.6042
RightFoot  -2.37613 -0.222708 2.63324
RightToes  -3.11842e-008 1.75238e-005 3.56266e-009
Spine  -5.05916 -3.15995 -5.68771
Spine1  14.2769 -3.74975 3.35947
HEad  -21.8904 0.598732 2.70343
LeftShoulder1  3.5143 -6.34214 -29.6729
LeftArm  -2.67749 23.7708 -50.2138
LeftForeArm  170.972 -63.9058 -160.02
LeftHand  -1.1802 -6.73395 11.6011
RightShoulder  3.15094 5.89298 27.5594
RightArm  6.98742 -42.7355 39.2515
RightForeArm  152.523 71.6339 148.373
RightHand  -1.18344 10.9086 -8.80083
LeftUpLeg  2.66122 1.2434 3.58343
LeftLeg  1.43481 2.48259 0.417362
LeftFoot  -2.33502 0.330339 -4.01203
LeftToes  4.78904e-008 1.4679e-008 1.35657e-009
243
root  -5.81495 40.8241 -0.689994 -3.57538 -81.9534 2.54266
RightUpLeg  5.80623 -2.98092 -0.90983
RightLeg  -0.694658 -28.6312 1.5137
RightFoot  -2.38586 -0.210092 2.47245
RightToes  -3.11842e-008 1.75238e-005 3.56266e-009
Spine  -5.83922 -3.05731 -5.22011
Spine1  15.548 -3.71254 3.43653
HEad  -22.0364 1.13991 2.10384
LeftShoulder1  3.39184 -6.12622 -29.1909
LeftArm  -2.63724 24.6346 -48.4875
LeftForeArm  170.212 -64.1629 -159.717
LeftHand  -1.15513 -6.41655 11.6559
RightShoulder  3.27166 6.12469 28.0136
RightArm  7.54387 -40.1175 38.4966
RightForeArm  152.044 71.9999 147.639
RightHand  -1.13786 11.0691 -8.40288
LeftUpLeg  2.99247 1.39199 3.75129
LeftLeg  1.40446 3.21943 0.423808
LeftFoot  -2.38541 0.338211 -4.16265
LeftToes  4.78904e-008 1.4679e-008 1.35657e-009
244
root  -5.78188 40.8185 -0.752107 -3.211 -82.7382 1.95343
RightUpLeg  5.92406 -2.77587 -0.664289
RightLeg  -0.781475 -28.1295 1.4529
RightFoot  -2.34922 -0.202602 2.37942
RightToes  -3.11842e-008 1.75238e-005 3.56266e-009
Spine  -6.71464 -2.86118 -5.36688
Spine1  16.9384 -3.7843 4.28083
HEad  -22.3126 1.66046 0.853272
LeftShoulder1  3.35774 -6.13526 -28.7931
LeftArm  -3.90071 24.9354 -47.8985
LeftForeArm  168.47 -65.1226 -158.686
LeftHand  -1.15894 -6.55182 11.5664
RightShoulder  3.49515 6.56046 28.7912
RightArm  7.86122 -36.0614 37.4947
RightForeArm  150.235 72.8382 145.737
RightHand  -1.07664 11.0919 -7.96945
LeftUpLeg  3.21979 1.54661 3.95788
LeftLeg  1.56474 3.79377 0.480216
LeftFoot  -2.47636 0.346008 -4.33443
LeftToes  4.78904e-008 1.4679e-008 1.35657e-009
245
root  -5.73746 40.8179 -0.812145 -2.34528 -83.9649 0.687317
RightUpLeg  6.22913 -2.56583 -0.384013
RightLeg  -0.914013 -27.1282 1.427
RightFoot  -2.24293 -0.188204 2.1992
RightToes  -3.11842e-008 1.75238e-005 3.56266e-009
Spine  -6.96457 -2.32717 -5.34651
Spine1  17.6615 -3.57734 5.28193
HEad  -21.7365 1.92157 -0.318173
LeftShoulder1  3.54229 -6.59727 -29.0396
LeftArm  -6.86409 24.4716 -47.0504
LeftForeArm  166.468 -65.5364 -158.079
LeftHand  -1.0828 -6.50766 10.8733
RightShoulder  3.68147 6.90527 29.4315
RightArm  7.55388 -31.3573 36.9466
RightForeArm  147.855 73.7544 143.356
RightHand  -1.14357 10.3949 -8.77513
LeftUpLeg  3.77372 1.89609 4.31791
LeftLeg  1.57494 4.56677 0.407428
LeftFoot  -2.58372 0.35251 -4.47757
LeftToes  4.78904e-008 1.4679e-008 1.35657e-009
246
root  -5.66116 40.8056 -0.86301 -0.440979 -84.7915 -1.4494
RightUpLeg  6.28172 -2.53695 -0.20117
RightLeg  -0.937565 -26.4174 1.60421
RightFoot  -2.29723 -0.164838 1.87745
RightToes  -3.11842e-008 1.75238e-005 3.56266e-009
Spine  -7.54036 -2.03873 -4.58547
Spine1  18.514 -3.25772 4.91534
HEad  -20.9068 2.38953 -1.13672
LeftShoulder1  3.4906 -6.5714 -28.6007
LeftArm  -12.2495 22.1892 -46.5766
LeftForeArm  163.598 -65.5008 -157.796
LeftHand  -1.01537 -6.43552 10.2807
RightShoulder  3.96298 7.31778 30.7199
RightArm  5.90876 -25.2482 36.2712
RightForeArm  144.534 74.5002 140.955
RightHand  -1.1018 10.368 -8.49151
LeftUpLeg  3.83487 2.16667 4.63821
LeftLeg  1.98396 5.02257 0.449936
LeftFoot  -2.76942 0.352515 -4.51945
LeftToes  4.78904e-008 1.4679e-008 1.35657e-009
